inDegrees=yes
name=ik_lifting_orientations
DataType=double
version=3
OpenSimVersion=4.5-2024-01-10-34fd6af
endheader
time	pelvis_tilt	pelvis_list	pelvis_rotation	pelvis_tx	pelvis_ty	pelvis_tz	hip_flexion_r	hip_adduction_r	hip_rotation_r	knee_angle_r	knee_angle_r_beta	ankle_angle_r	subtalar_angle_r	mtp_angle_r	hip_flexion_l	hip_adduction_l	hip_rotation_l	knee_angle_l	knee_angle_l_beta	ankle_angle_l	subtalar_angle_l	mtp_angle_l	lumbar_extension	lumbar_bending	lumbar_rotation	arm_flex_r	arm_add_r	arm_rot_r	elbow_flex_r	pro_sup_r	wrist_flex_r	wrist_dev_r	arm_flex_l	arm_add_l	arm_rot_l	elbow_flex_l	pro_sup_l	wrist_flex_l	wrist_dev_l
0.02	-0.002233909151914064	-0.008166736609751259	-89.95536660382066	0	0.9399999998679526	0	44.85993728588971	-11.68390412149925	0	59.91919392879105	1.045787219198401	-5.685651588330165	0	0	44.85993728588971	-11.68390412149925	0	59.91919392879105	1.045787219198401	-5.685651588330165	0	0	-0.01271431820083848	0.0005228634054693079	0.01077051970220881	-0.2314499414214108	-0.05780697348736377	-0.01844313317592668	0.4943730496520619	3.225093851870047	0	0	0	-9.162695485488792	0	86.83790029535696	3.225093851870047	0	0
0.03	0.0009007364748807112	0.07563333977038116	-90.06402863813678	0	0.9399999998679526	0	44.86306049712605	-11.56787679078439	0	59.9206214932161	1.045812134897902	-5.627017402852484	0	0	44.86306049712605	-11.56787679078439	0	59.9206214932161	1.045812134897902	-5.627017402852484	0	0	0.07680724602521916	-0.003102515174913249	0.04893768434097442	-0.2360183862799297	-0.04982740876551587	0.04431513835842628	0.4951565775305218	3.174230679344092	0	0	0	-9.23115896589216	0	86.88776516572253	3.174230679344092	0	0
0.04	0.02374246080382672	0.1008955615754079	-90.025106712547	0	0.9399999998679526	0	44.86610831931002	-11.45916340890014	0	59.92202008996588	1.045836545016093	-5.572887331199306	0	0	44.86610831931002	-11.45916340890014	0	59.92202008996588	1.045836545016093	-5.572887331199306	0	0	0.09782849197067149	-0.01468250991845053	0.1240104125959314	-0.2357496644810152	-0.0655498032429177	-0.04806362512184251	0.4937825526594932	3.124320668289196	0	0	0	-9.298567478008097	0	86.93669566412339	3.124320668289196	0	0
0.05	0.04377698135045945	0.1133608764055874	-90.19918363451491	0	0.9399999998679526	0	44.86612983330219	-11.45835562045948	0	59.92203006355632	1.045836719088085	-5.572475274182189	0	0	44.86612983330219	-11.45835562045948	0	59.92203006355632	1.045836719088085	-5.572475274182189	0	0	0.116669099917915	-0.02594764276947975	0.2857597859909027	-0.2434045094608453	-0.0741146337003409	-0.06920668790308107	0.4967105681396525	3.123969329853226	0	0	0	-9.299041933351177	0	86.93704010685811	3.123969329853226	0	0
0.06	-0.03299499678952506	0.06987540106231278	-89.65991347831149	0	0.9399999998679526	0	44.86615810672795	-11.45730707896488	0	59.92204329248052	1.045836949976369	-5.571941750936361	0	0	44.86615810672795	-11.45730707896488	0	59.92204329248052	1.045836949976369	-5.571941750936361	0	0	0.07055808334548372	0.0479198244477702	-0.3113049384080741	-0.2362808664198869	-0.06524853002541028	0.007108472867179628	0.5062746344441675	3.123505928865919	0	0	0	-9.29966961799779	0	86.93749441310705	3.123505928865919	0	0
0.07000000000000001	-0.01525708652264234	0.06509844630454496	-89.83576631902375	0	0.9399999998679526	0	44.86617005270616	-11.4568666882532	0	59.92204890554339	1.045837047942797	-5.571717956590373	0	0	44.86617005270616	-11.4568666882532	0	59.92204890554339	1.045837047942797	-5.571717956590373	0	0	0.06668845195260928	0.03661860398336847	-0.24599247563801	-0.2500796624431026	-0.1310298117767162	0.1366934956563981	0.5204335429776162	3.123309805600676	0	0	0	-9.299935638708128	0	86.93768668732397	3.123309805600676	0	0
0.08	-0.05819260305681984	0.0160727028792382	-89.54363790300104	0	0.9399999998679526	0	44.86618716670712	-11.45623631582843	0	59.92205695088012	1.045837188360412	-5.571397688277289	0	0	44.86618716670712	-11.45623631582843	0	59.92205695088012	1.045837188360412	-5.571397688277289	0	0	0.02941807074187709	0.08087419009169751	-0.44415719159102	-0.2434785365276442	-0.1206459438618496	0.02888511790206634	0.4598051443663203	3.123028775816159	0	0	0	-9.300316892425805	0	86.93796220172899	3.123028775816159	0	0
0.09	-0.07596355970852096	0.01040748776735397	-89.51213136259737	0	0.9399999998679526	0	44.86905884610632	-11.35890603158419	0	59.92338116706573	1.045860300292859	-5.523851657333801	0	0	44.86905884610632	-11.35890603158419	0	59.92338116706573	1.045860300292859	-5.523851657333801	0	0	0.05477078373345606	0.1205007442102088	-0.369443052613506	-0.2452847043374	-0.1354406840272137	-0.07638991233259462	0.4314252438773463	3.075682041675506	0	0	0	-9.364530852108416	0	86.98437982293284	3.075682041675506	0	0
0.1	-0.04175365546130402	0.005947969825428581	-89.59138198908968	0	0.9399999998679526	0	44.87343145723899	-11.22580291233661	0	59.92541894696308	1.045895866261499	-5.461291288064303	0	0	44.87343145723899	-11.22580291233661	0	59.92541894696308	1.045895866261499	-5.461291288064303	0	0	-0.008594988283537186	0.07527271895769974	-0.3048676089480207	-0.1943449655736569	-0.1304988511414728	-0.02148627077353077	0.4414803230961369	3.002517893601269	0	0	0	-9.464664804073021	0	87.056108540409	3.002517893601269	0	0
0.11	-0.06744263283493304	-0.05250400039986886	-89.41620323326514	0	0.9399999998679526	0	44.87344454795403	-11.22536864758764	0	59.92542511272178	1.045895973874289	-5.46107913470072	0	0	44.87344454795403	-11.22536864758764	0	59.92542511272178	1.045895973874289	-5.46107913470072	0	0	-0.0422792813623532	0.1069222827105296	-0.3574858094996984	-0.2553869467517015	-0.1355989641181488	-0.1464365830101189	0.4352134932135636	3.002300232601715	0	0	0	-9.464962124482266	0	87.05632193050577	3.002300232601715	0	0
0.12	-0.0718440260362249	-0.05877362846624176	-89.33037834808253	0	0.9399999998679526	0	44.87346003910503	-11.22484731505422	0	59.92543232670653	1.045896099782075	-5.46082374169993	0	0	44.87346003910503	-11.22484731505422	0	59.92543232670653	1.045896099782075	-5.46082374169993	0	0	-0.0548184034284654	0.1269207050313564	-0.3230019686954255	-0.2377685576739594	-0.1398860802699579	-0.2337085499775724	0.4307926610226077	3.002043781507999	0	0	0	-9.465311144797923	0	87.05657334931544	3.002043781507999	0	0
0.13	-0.08798090342505134	0.02778869812113015	-89.28962149649881	0	0.9399999998679526	0	44.87697281836326	-11.12206198519294	0	59.92707630630075	1.04592479263883	-5.413157395745261	0	0	44.87697281836326	-11.12206198519294	0	59.92707630630075	1.04592479263883	-5.413157395745261	0	0	0.03582010766306536	0.146869912561168	-0.3587143761042445	-0.4268506260719774	-0.1988343670148536	-0.2384186773917271	0.8859622200951851	2.942926297950744	0	0	0	-9.546512633195542	0	87.11453107297646	2.942926297950744	0	0
0.14	-0.04912846422157132	0.0171528030953856	-89.52516315035024	0	0.9399999998679526	0	44.87699650273425	-11.12132130757225	0	59.92708751397419	1.045924988249633	-5.412803257216616	0	0	44.87699650273425	-11.12132130757225	0	59.92708751397419	1.045924988249633	-5.412803257216616	0	0	0.08619074950401341	0.1267930753690051	-0.1330854991126827	-0.2794573173853345	-0.1298771582659567	-0.2397592709537635	0.3848978138191692	2.94252940110982	0	0	0	-9.547057339917897	0	87.11492018283782	2.94252940110982	0	0
0.15	-0.01296595792172128	-0.06266784656685737	-89.89261282511528	0	0.9399999998679526	0	44.87703095589326	-11.12023852735056	0	59.92710375499814	1.045925271708975	-5.412285053477733	0	0	44.87703095589326	-11.12023852735056	0	59.92710375499814	1.045925271708975	-5.412285053477733	0	0	-0.02089218799732205	0.08832771435646428	0.2435961981830636	-0.2396211140421023	-0.1236410665479637	-0.2466631917210096	0.3777272282414785	2.94195288670098	0	0	0	-9.547847594270038	0	87.11548538605676	2.94195288670098	0	0
0.16	-0.02264855585442172	-0.1233418989077482	-89.89687240627943	0	0.9399999998679526	0	44.87706069353099	-11.11928591981276	0	59.92711755134896	1.045925512500721	-5.411827572688465	0	0	44.87706069353099	-11.11928591981276	0	59.92711755134896	1.045925512500721	-5.411827572688465	0	0	-0.1383516536236962	0.07961690769873002	0.1753389899492902	-0.1589857902437322	-0.09058607810916117	-0.1477842065511416	0.3410779525230765	2.941458284176494	0	0	0	-9.548522072975519	0	87.11597028385661	2.941458284176494	0	0
0.17	-0.04643870838130688	-0.1193180705509994	-89.84135721899473	0	0.9399999998679526	0	44.87708738439277	-11.11843269765355	0	59.92712995131173	1.045925728920899	-5.4114180264292	0	0	44.87708738439277	-11.11843269765355	0	59.92712995131173	1.045925728920899	-5.4114180264292	0	0	-0.1351162681115172	0.09851381738766836	0.06803163376682042	-0.1461104840090173	-0.05936276511329878	-0.1026947115754728	0.3063981292906148	2.941014102184952	0	0	0	-9.549128083357663	0	87.11640575049479	2.941014102184952	0	0
0.18	-0.1012399294816132	-0.04692191234392015	-89.22081649396281	0	0.9399999998679526	0	44.87712595889052	-11.11722187059485	0	59.92714812764425	1.045926046157747	-5.410838936281948	0	0	44.87712595889052	-11.11722187059485	0	59.92714812764425	1.045926046157747	-5.410838936281948	0	0	-0.002622604562990538	0.1648336868198853	-0.6766198540522955	-0.2133278331314341	-0.04827565171546076	0.05001271527748	0.3005861215501894	2.940368617717098	0	0	0	-9.550012834119498	0	87.11703857059159	2.940368617717098	0	0
0.19	-0.1053520479854698	-0.04258205610575003	-89.28146973271059	0	0.9399999998679526	0	44.87715655041248	-11.11624531600112	0	59.92716234223111	1.04592629424909	-5.410370457465955	0	0	44.87715655041248	-11.11624531600112	0	59.92716234223111	1.04592629424909	-5.410370457465955	0	0	-0.05756905114199035	0.1461462806691163	-0.6774679189204849	-0.1183609196721763	0.004592004044048446	0.1211070997527666	0.2757474702821068	2.939859427943852	0	0	0	-9.550707618917372	0	87.11753776951036	2.939859427943852	0	0
0.2	-0.06787772567339961	0.02177344728615796	-89.41433938321975	0	0.9399999998679526	0	44.87718071064112	-11.11548014257005	0	59.92717363533647	1.045926491350961	-5.410003989047557	0	0	44.87718071064112	-11.11548014257005	0	59.92717363533647	1.045926491350961	-5.410003989047557	0	0	0.00625115224015421	0.1175927262869072	-0.6159697881370548	-0.08123929246702179	0.02943864734556325	0.2332463773122972	0.2653626953693628	2.939456348357042	0	0	0	-9.551258695733823	0	87.11793294044226	2.939456348357042	0	0
0.21	-0.06130579976319545	-0.01706887135178752	-89.50523858582308	0	0.9399999998679526	0	44.87721311736232	-11.11444634890656	0	59.92718869018405	1.04592675410762	-5.409508238240675	0	0	44.87721311736232	-11.11444634890656	0	59.92718869018405	1.04592675410762	-5.409508238240675	0	0	-0.09549136673920422	0.09714921943754272	-0.5248443630171756	-0.03807894154343534	0.07691987513346489	0.2219506383313901	0.252530919648199	2.93891693697086	0	0	0	-9.551994704745523	0	87.11846176799943	2.93891693697086	0	0
0.22	-0.05593106217339917	-0.0522992263474155	-89.59589337971371	0	0.9399999998679526	0	44.87723603675207	-11.11371848910973	0	59.92719936957238	1.045926940498108	-5.409159565277318	0	0	44.87723603675207	-11.11371848910973	0	59.92719936957238	1.045926940498108	-5.409159565277318	0	0	-0.1151229817127112	0.08699242497200131	-0.5488078328839107	-0.02096734754288913	0.09349278953974385	0.3609282267003429	0.2453730108482824	2.938534979655029	0	0	0	-9.552516393463584	0	87.11883623100361	2.938534979655029	0	0
0.23	-0.1118226866022791	0.02877215229873091	-89.22853945357403	0	0.9399999998679526	0	44.8772681390487	-11.11270640569238	0	59.9272144135782	1.045927203065542	-5.408675436364511	0	0	44.8772681390487	-11.11270640569238	0	59.9272144135782	1.045927203065542	-5.408675436364511	0	0	-0.03840795726449849	0.138708614012543	-0.9757578241545104	-0.009688890282716651	0.1307420292907143	0.4496738933475239	0.2390618664059094	2.937998794045629	0	0	0	-9.553250118588062	0	87.11936189647696	2.937998794045629	0	0
0.24	-0.137028916237726	0.03569957641585668	-89.11247014329074	0	0.9399999998679526	0	44.87729641608813	-11.11180757767838	0	59.92722757111344	1.045927432707854	-5.408244879568936	0	0	44.87729641608813	-11.11180757767838	0	59.92722757111344	1.045927432707854	-5.408244879568936	0	0	-0.09566950455700876	0.1305629986332774	-1.219527944682448	0.06947369121863034	0.2082587227443007	0.5996806934204358	0.222740167310564	2.937527758255368	0	0	0	-9.5538932181727	0	87.11982369012394	2.937527758255368	0	0
